<?xml version="1.0" encoding="UTF-8"?>
<svg version="1.1" viewBox="0 0 48 48" xmlns="http://www.w3.org/2000/svg"><g transform="matrix(1.7784 0 0 1.7784 -19.143 -11.419)"><path d="m24.246 9.0996c-9.691 0.04525-13.119 9.2186-13.119 12.133v5.1426l4.5547 0.20117 4.4375 4.1562 4.3516-4.0781 4.3535 4.0781 4.1738-3.9102 4.3945-0.44727v-5.1426c0-2.8685-3.4014-12.108-13.146-12.133zm-2.375 4.8652a0.9865 0.9865 0 0 1 0.98633 0.98633 0.9865 0.9865 0 0 1-0.98633 0.98633 0.9865 0.9865 0 0 1-0.98633-0.98633 0.9865 0.9865 0 0 1 0.98633-0.98633zm4.8633 0.035156a0.9865 0.9865 0 0 1 0.98633 0.98633 0.9865 0.9865 0 0 1-0.98633 0.98633 0.9865 0.9865 0 0 1-0.98633-0.98633 0.9865 0.9865 0 0 1 0.98633-0.98633zm-8.5078 1.2598a4.7706 4.7706 0 0 1 4.7715 4.7695 4.7706 4.7706 0 0 1-4.7715 4.7715 4.7706 4.7706 0 0 1-4.7695-4.7715 4.7706 4.7706 0 0 1 4.7695-4.7695zm12.066 0a4.7706 4.7706 0 0 1 4.7715 4.7695 4.7706 4.7706 0 0 1-4.7715 4.7715 4.7706 4.7706 0 0 1-4.7695-4.7715 4.7706 4.7706 0 0 1 4.7695-4.7695z" fill="#d758b8"/><g transform="translate(-.79127 .16658)" stroke="#d758b8" stroke-linecap="round" stroke-linejoin="round" stroke-width=".6"><g transform="matrix(1.1076 0 0 1.1076 -2.0099 -1.9926)"><path d="m20.216 17.447-0.48841 3.2523"/><path d="m21.658 17.447-0.48841 3.2523"/><path d="m19.185 18.272h3.254"/><path d="m18.976 19.596h3.254"/></g><g transform="matrix(1.1076 0 0 1.1076 9.8092 -1.9926)"><path d="m20.216 17.447-0.48841 3.2523"/><path d="m21.658 17.447-0.48841 3.2523"/><path d="m19.185 18.272h3.254"/><path d="m18.976 19.596h3.254"/></g></g></g></svg>
